<?xml version="1.0" encoding="utf-8"?>
<!-- Generator: Adobe Illustrator 18.1.1, SVG Export Plug-In . SVG Version: 6.00 Build 0)  -->
<svg version="1.1" id="Layer_1" xmlns="http://www.w3.org/2000/svg" xmlns:xlink="http://www.w3.org/1999/xlink" x="0px" y="0px"
	 viewBox="0 0 24.7 25" enable-background="new 0 0 24.7 25" xml:space="preserve">
<path fill="#FFFFFF" d="M21.6,0H3.1C1.4,0,0,1.4,0,3.1v18.7c0,1.7,1.4,3.1,3.1,3.1h18.5c1.7,0,3.1-1.4,3.1-3.1V3.1
	C24.7,1.4,23.3,0,21.6,0z M17.4,12.4c0,2.8-2.3,5.1-5.1,5.1c-2.8,0-5.1-2.3-5.1-5.1c0-0.8,0.2-1.6,0.6-2.3c0.8-1.6,2.5-2.7,4.5-2.7
	c2,0,3.7,1.1,4.5,2.7C17.2,10.8,17.4,11.6,17.4,12.4z M21.9,20.8c0,0.7-0.6,1.3-1.3,1.3H4.2c-0.7,0-1.3-0.6-1.3-1.3V10.1H5
	c-0.2,0.7-0.4,1.5-0.4,2.3c0,4.2,3.5,7.7,7.7,7.7c4.2,0,7.7-3.5,7.7-7.7c0-0.8-0.1-1.6-0.4-2.3h2.2V20.8z M21.9,6.1
	c0,0.7-0.6,1.3-1.3,1.3h-1.9c-0.7,0-1.3-0.6-1.3-1.3V4c0-0.6,0.4-1,0.9-1.2h2.3c0.7,0,1.3,0.6,1.3,1.3V6.1z"/>
</svg>
