<?xml version="1.0" encoding="utf-8"?>
<!-- Generator: Adobe Illustrator 18.1.1, SVG Export Plug-In . SVG Version: 6.00 Build 0)  -->
<svg version="1.1" id="Layer_1" xmlns="http://www.w3.org/2000/svg" xmlns:xlink="http://www.w3.org/1999/xlink" x="0px" y="0px"
	 viewBox="0 0 231 52" enable-background="new 0 0 231 52" xml:space="preserve">
<path opacity="0.7" fill="#FFFFFF" d="M23.9,9.4c-0.2,0.2-0.4,0.3-0.6,0.5c-1.1,1-2.2,1.5-3.1,1.5c-0.4,0-0.6-0.1-0.8-0.4
	c-0.1-0.2-0.2-0.5-0.2-0.9l0.1-0.4c0.8,0,1.5-0.1,2.3-0.5C22.5,8.7,23,8.1,23,7.4c0-0.7-0.4-1.3-1.3-1.8c-0.8-0.5-1.5-0.7-2.3-0.7
	c-0.7,0-1.2,0.6-1.5,1.7c-0.2,0.8-0.3,1.7-0.3,2.6c0,0.2,0,0.3,0,0.4c-0.2,0.1-0.4,0.3-0.7,0.6c-0.4,0.5-0.6,0.7-0.8,0.7
	c-0.3,0-0.5-0.4-0.5-1.1c0-1.3-0.1-2.1-0.2-2.6c-0.3-1-0.9-1.5-1.8-1.5c-0.5,0-0.9,0.1-1.2,0.3c-0.1,0-0.4,0.3-0.9,0.8V6.6
	c0-0.7,0.1-1.9,0.2-3.3c0.1-1.2,0.1-1,0.1-1.4c0.1-1-0.2-1-0.7-1.1C10.9,0.7,10,0.5,8.9,0.4c-0.2,0-0.4,0-0.8,0
	c-0.9,0-2.3,0.1-4,0.4C2.2,1.1,0.9,1.2,0.2,1.3C0.1,1.4,0,1.5,0,1.7c0,0.4,0.4,0.7,1.1,0.8c0.2,0,0.7,0.1,1.5,0.1c1.7,0,2.6,0,2.7,0
	c-0.2,2.2-0.3,5.2-0.3,9c0,0.5,0.1,0.8,0.3,0.9c0.1,0.1,0.4,0.1,1,0.1c0.2,0,0.4-0.1,0.6-0.3v0c0-1.3,0.1-3.1,0.2-5.2
	c0.1-2.7,0.3-4.2,0.5-4.7C8.4,2.4,9.8,2.1,10,2.3S10,3.6,9.9,5.4c-0.1,2.5-0.1,4.4-0.1,5.6c0,0.6,0.1,0.9,0.2,1.1
	c0.1,0.2,0.5,0.3,1,0.3c0.3,0,0.6-0.5,0.8-1.4c0.3-1.2,0.5-2,0.6-2.5c0.2-0.9,0.6-1.4,1.1-1.4c0.2,0,0.4,0.1,0.5,0.4
	c0,0.1,0,0.3,0,0.7c0,1.1,0.1,1.9,0.3,2.4c0.3,0.7,1,1.1,1.9,1.1c0.3,0,0.7-0.2,1.2-0.7c0.1-0.1,0.3-0.3,0.4-0.4c0,0,0,0,0,0
	c0.2,0.5,0.6,0.9,1.1,1.2c0.7,0.4,1.2,0.6,1.6,0.6c0.6,0,1.4-0.3,2.3-0.8c1-0.6,1.5-1.2,1.5-1.8C24.3,9.6,24.2,9.4,23.9,9.4z
	 M19.7,7.2c0.3-0.7,0.6-1.1,1-1.1c0.4,0,0.7,0.3,0.7,0.8c0,0.5-0.2,1-0.6,1.3c-0.4,0.4-0.9,0.5-1.4,0.5C19.4,8.2,19.5,7.7,19.7,7.2z
	"/>
<path fill="#FFFFFF" d="M20.9,27.8c0,2.4-1,4.5-2.6,6c1.6,1.5,2.6,3.6,2.6,6v10.7c0,0.6-0.5,1.2-1.2,1.2h-2.3
	c-0.6,0-1.2-0.6-1.2-1.2V39.8c0-2-1.7-3.7-3.7-3.7H8.8v14.4c0,0.6-0.5,1.2-1.2,1.2H5.4c-0.6,0-1.2-0.6-1.2-1.2V36.1v-4.6V17.2
	c0-0.6,0.5-1.2,1.2-1.2h2.3c0.6,0,1.2,0.5,1.2,1.2v14.3h3.7c2.1,0,3.7-1.7,3.7-3.7V17.2c0-0.6,0.5-1.2,1.2-1.2h2.3
	c0.6,0,1.2,0.5,1.2,1.2V27.8z M18.9,18.3c0-0.2-0.1-0.3-0.3-0.3h-0.1c-0.2,0-0.4,0.1-0.4,0.3v9.5c0,3.1-2.5,5.6-5.6,5.6H6.9V18.3
	C6.9,18,6.8,18,6.6,18H6.5c-0.1,0-0.3,0.1-0.3,0.3v15.1v0.8v15.3c0,0.1,0.1,0.3,0.3,0.3h0.1c0.2,0,0.3-0.1,0.3-0.3V34.2h5.6
	c3.1,0,5.6,2.5,5.6,5.6v9.6c0,0.1,0.1,0.3,0.4,0.3h0.1c0.1,0,0.3-0.1,0.3-0.3v-9.6c0-2.7-1.7-5.1-4.2-6c2.4-0.9,4.2-3.2,4.2-6V18.3z
	"/>
<path opacity="0.85" fill="#FFFFFF" d="M30.7,50.5c0,0.6-0.5,1.2-1.2,1.2h-2.3c-0.6,0-1.2-0.5-1.2-1.2V17.2c0-0.6,0.5-1.2,1.2-1.2
	h2.3c0.6,0,1.2,0.5,1.2,1.2V50.5z M28.7,18.3c0-0.1-0.1-0.3-0.3-0.3h-0.1c-0.2,0-0.4,0.1-0.4,0.3v31.2c0,0.1,0.1,0.3,0.4,0.3h0.1
	c0.1,0,0.3-0.1,0.3-0.3V18.3z"/>
<path opacity="0.7" fill="#FFFFFF" d="M47.8,17.2v2.3c0,0.6-0.5,1.2-1.2,1.2h-3.2v29.9c0,0.6-0.5,1.2-1.2,1.2H40
	c-0.6,0-1.2-0.6-1.2-1.2V20.6h-3.2c-0.6,0-1.2-0.5-1.2-1.2v-2.3c0-0.6,0.5-1.2,1.2-1.2h11.1C47.3,16,47.8,16.5,47.8,17.2z
	 M45.9,18.3c0-0.2-0.1-0.3-0.3-0.3h-8.9c-0.1,0-0.3,0.1-0.3,0.3v0.1c0,0.1,0.1,0.3,0.3,0.3h4.1v30.8c0,0.1,0.1,0.3,0.3,0.3h0.1
	c0.2,0,0.3-0.1,0.3-0.3V18.7h4.1c0.1,0,0.3-0.1,0.3-0.3V18.3z"/>
<path fill="#FFFFFF" d="M62.1,26.8v-2.4c0-2-1.7-3.7-3.7-3.7c-2,0-3.7,1.7-3.7,3.7v19.1c0,2,1.7,3.7,3.7,3.7c2,0,3.7-1.7,3.7-3.7
	v-2.7c0-0.6,0.5-1.2,1.2-1.2h2.3c0.6,0,1.2,0.5,1.2,1.2v2.7c0,4.5-3.7,8.3-8.3,8.3c-4.6,0-8.3-3.7-8.3-8.3V24.3
	c0-4.5,3.7-8.3,8.3-8.3c4.5,0,8.3,3.7,8.3,8.3v2.4c0,0.6-0.5,1.2-1.2,1.2h-2.3C62.6,27.9,62.1,27.4,62.1,26.8z M64,24.3v0.6v0.8
	c0,0.2,0.1,0.4,0.4,0.4h0.1c0.1,0,0.3-0.1,0.3-0.4v-0.8v-0.6c0-3.5-2.8-6.3-6.3-6.3c-3.5,0-6.4,2.8-6.4,6.3v19.1
	c0,3.5,2.9,6.3,6.4,6.3c3.5,0,6.3-2.8,6.3-6.3v-1.6c0-0.2-0.1-0.4-0.3-0.4h-0.1c-0.2,0-0.4,0.1-0.4,0.4v1.6c0,3.1-2.4,5.6-5.5,5.6
	c-3.1,0-5.6-2.5-5.6-5.6V24.3c0-3.1,2.5-5.5,5.6-5.5C61.5,18.8,64,21.2,64,24.3z"/>
<path opacity="0.85" fill="#FFFFFF" d="M87,17.2v33.3c0,0.6-0.5,1.2-1.2,1.2h-2.3c-0.6,0-1.2-0.5-1.2-1.2V36.1h-7.3v14.4
	c0,0.6-0.5,1.2-1.2,1.2h-2.3c-0.6,0-1.2-0.5-1.2-1.2V17.2c0-0.6,0.5-1.2,1.2-1.2h2.3c0.6,0,1.2,0.5,1.2,1.2v14.3h7.3V17.2
	c0-0.6,0.6-1.2,1.2-1.2h2.3C86.5,16,87,16.5,87,17.2z M85.1,18.3c0-0.1-0.1-0.3-0.3-0.3h-0.2c-0.1,0-0.3,0.1-0.3,0.3v15.2H73.1V18.3
	c0-0.1-0.1-0.3-0.3-0.3h-0.1c-0.2,0-0.4,0.1-0.4,0.3v31.2c0,0.1,0.1,0.3,0.4,0.3h0.1c0.1,0,0.3-0.1,0.3-0.3V34.3h11.2v15.2
	c0,0.1,0.1,0.3,0.3,0.3h0.2c0.1,0,0.3-0.1,0.3-0.3V18.3z"/>
<path opacity="0.7" fill="#FFFFFF" d="M96.1,20.6v10.9h6.3c0.6,0,1.2,0.5,1.2,1.2V35c0,0.6-0.5,1.2-1.2,1.2h-6.3v10.9h6.3
	c0.6,0,1.2,0.5,1.2,1.2v2.3c0,0.6-0.5,1.2-1.2,1.2h-8.6c-1.3,0-2.3-1.1-2.3-2.3v-31c0-1.3,1-2.3,2.3-2.3h8.6c0.6,0,1.2,0.5,1.2,1.2
	v2.3c0,0.6-0.5,1.2-1.2,1.2H96.1z M94.1,33.5V18.7h7.1c0.1,0,0.3-0.1,0.3-0.3v-0.1c0-0.1-0.1-0.3-0.3-0.3h-7.5
	c-0.2,0-0.4,0.1-0.4,0.4v31c0,0.2,0.1,0.4,0.4,0.4h7.5c0.1,0,0.3-0.1,0.3-0.3v-0.1c0-0.2-0.1-0.4-0.3-0.4h-7.1V34.2h7.1
	c0.1,0,0.3-0.1,0.3-0.3v-0.1c0-0.1-0.1-0.3-0.3-0.3H94.1z"/>
<path fill="#FFFFFF" d="M124.6,24.3v26.2c0,0.6-0.5,1.2-1.2,1.2h-2.3c-0.6,0-1.2-0.6-1.2-1.2V24.3c0-2-1.7-3.7-3.7-3.7
	c-2.1,0-3.7,1.7-3.7,3.7v26.2c0,0.6-0.5,1.2-1.2,1.2h-2.3c-0.6,0-1.2-0.6-1.2-1.2V24.3c0-4.5,3.7-8.3,8.4-8.3
	C120.8,16,124.6,19.8,124.6,24.3z M122.6,24.3c0-3.5-2.8-6.3-6.3-6.3c-3.5,0-6.4,2.8-6.4,6.3v25.1c0,0.1,0.1,0.3,0.3,0.3h0.1
	c0.2,0,0.4-0.1,0.4-0.3V24.3c0-3.1,2.5-5.6,5.6-5.6c3.1,0,5.6,2.5,5.6,5.6v25.1c0,0.1,0.1,0.3,0.3,0.3h0.1c0.2,0,0.3-0.1,0.3-0.3
	V24.3z"/>
<path opacity="0.85" fill="#FFFFFF" d="M145.7,24.4v26.1c0,0.6-0.5,1.2-1.2,1.2h-2.3c-0.6,0-1.2-0.5-1.2-1.2V36.2h-7.4v14.3
	c0,0.6-0.5,1.2-1.2,1.2h-2.3c-0.6,0-1.2-0.5-1.2-1.2V24.4c0-4.5,3.7-8.3,8.4-8.3C141.9,16.1,145.7,19.8,145.7,24.4z M143.7,24.4
	c0-3.5-2.8-6.4-6.3-6.4c-3.5,0-6.4,2.9-6.4,6.4v25.1c0,0.1,0.1,0.3,0.3,0.3h0.1c0.2,0,0.4-0.1,0.4-0.3V34.3H143v15.3
	c0,0.1,0.1,0.3,0.3,0.3h0.1c0.1,0,0.3-0.1,0.3-0.3V24.4z M143,24.4v9.1h-11.2v-9.1c0-3.1,2.5-5.6,5.6-5.6
	C140.5,18.8,143,21.3,143,24.4z M141.1,24.4c0-2-1.7-3.7-3.7-3.7c-2.1,0-3.7,1.7-3.7,3.7v7.2h7.4V24.4z"/>
<path opacity="0.7" fill="#FFFFFF" d="M166.8,27.8c0,2.4-0.9,4.5-2.5,6c1.6,1.5,2.5,3.6,2.5,6v10.7c0,0.6-0.5,1.2-1.2,1.2h-2.3
	c-0.6,0-1.2-0.6-1.2-1.2V39.8c0-2-1.7-3.7-3.7-3.7h-3.7v14.4c0,0.6-0.6,1.2-1.2,1.2h-2.3c-0.6,0-1.2-0.6-1.2-1.2V18.3
	c0-1.3,1-2.3,2.3-2.3h6c4.6,0,8.3,3.7,8.3,8.3V27.8z M164.9,24.3c0-3.5-2.9-6.3-6.4-6.3h-6c-0.2,0-0.4,0.1-0.4,0.4v31.1
	c0,0.1,0.1,0.3,0.3,0.3h0.2c0.1,0,0.3-0.1,0.3-0.3V34.2h5.6c3.1,0,5.6,2.5,5.6,5.6v9.6c0,0.1,0.1,0.3,0.3,0.3h0.1
	c0.2,0,0.4-0.1,0.4-0.3v-9.6c0-2.7-1.8-5.1-4.2-6c2.4-0.9,4.2-3.2,4.2-6V24.3z M164.1,24.3v3.5c0,3.1-2.5,5.6-5.6,5.6h-5.6V18.7h5.6
	C161.6,18.7,164.1,21.2,164.1,24.3z M162.2,24.3c0-2-1.7-3.7-3.7-3.7h-3.7v10.9h3.7c2,0,3.7-1.7,3.7-3.7V24.3z"/>
<path fill="#FFFFFF" d="M175.9,50.5c0,0.6-0.5,1.2-1.2,1.2h-2.3c-0.6,0-1.2-0.5-1.2-1.2V17.2c0-0.6,0.5-1.2,1.2-1.2h2.3
	c0.6,0,1.2,0.5,1.2,1.2V50.5z M173.9,18.3c0-0.1-0.1-0.3-0.3-0.3h-0.1c-0.2,0-0.4,0.1-0.4,0.3v31.2c0,0.1,0.1,0.3,0.4,0.3h0.1
	c0.1,0,0.3-0.1,0.3-0.3V18.3z"/>
<path opacity="0.85" fill="#FFFFFF" d="M197.7,17.2v26.1c0,4.6-3.7,8.4-8.3,8.4c-4.6,0-8.4-3.7-8.4-8.4V17.2c0-0.6,0.6-1.2,1.2-1.2
	h2.3c0.6,0,1.2,0.5,1.2,1.2v26.1c0,2.1,1.7,3.7,3.7,3.7c2,0,3.7-1.7,3.7-3.7V17.2c0-0.6,0.5-1.2,1.2-1.2h2.3
	C197.2,16,197.7,16.5,197.7,17.2z M195.8,18.3c0-0.2-0.1-0.3-0.4-0.3h-0.1c-0.1,0-0.3,0.1-0.3,0.3v25.1c0,3.1-2.5,5.6-5.6,5.6
	c-3.1,0-5.6-2.5-5.6-5.6V18.3c0-0.2-0.1-0.3-0.3-0.3h-0.2c-0.1,0-0.3,0.1-0.3,0.3v25.1c0,3.5,2.9,6.4,6.4,6.4c3.5,0,6.4-2.9,6.4-6.4
	V18.3z"/>
<path opacity="0.7" fill="#FFFFFF" d="M230.8,24.3v26.2c0,0.6-0.5,1.2-1.2,1.2h-2.3c-0.6,0-1.2-0.6-1.2-1.2V24.3
	c0-2-1.7-3.7-3.7-3.7c-2,0-3.7,1.7-3.7,3.7v26.2c0,0.6-0.5,1.2-1.2,1.2h-2.3c-0.6,0-1.2-0.6-1.2-1.2V24.3c0-2-1.7-3.7-3.7-3.7
	c-2.1,0-3.7,1.7-3.7,3.7v26.2c0,0.6-0.5,1.2-1.2,1.2h-2.3c-0.6,0-1.2-0.6-1.2-1.2V24.3c0-4.5,3.7-8.3,8.4-8.3c2.3,0,4.5,1,6,2.6
	c1.5-1.6,3.7-2.6,6-2.6C227.1,16,230.8,19.8,230.8,24.3z M228.9,24.3c0-3.5-2.9-6.3-6.4-6.3c-2.7,0-5.1,1.7-6,4.2
	c-0.9-2.4-3.2-4.2-6-4.2c-3.5,0-6.4,2.8-6.4,6.3v25.1c0,0.1,0.1,0.3,0.3,0.3h0.1c0.2,0,0.4-0.1,0.4-0.3V24.3c0-3.1,2.5-5.6,5.6-5.6
	c3.1,0,5.6,2.5,5.6,5.6v25.1c0,0.1,0.1,0.3,0.3,0.3h0.1c0.2,0,0.3-0.1,0.3-0.3V24.3c0-3.1,2.5-5.6,5.6-5.6c3.1,0,5.6,2.5,5.6,5.6
	v25.1c0,0.1,0.1,0.3,0.4,0.3h0.1c0.1,0,0.3-0.1,0.3-0.3V24.3z"/>
</svg>
