<?xml version="1.0" encoding="utf-8"?>
<!-- Generator: Adobe Illustrator 18.1.1, SVG Export Plug-In . SVG Version: 6.00 Build 0)  -->
<svg version="1.1" id="Layer_1" xmlns="http://www.w3.org/2000/svg" xmlns:xlink="http://www.w3.org/1999/xlink" x="0px" y="0px"
	 viewBox="0 0 50 36" enable-background="new 0 0 50 36" xml:space="preserve">
<g>
	<g>
		<path fill-rule="evenodd" clip-rule="evenodd" fill="#FFFFFF" d="M14.1,5.2c0,0,0.3,0,0.4,0.1c0.1,0.2,0,0.4,0,0.4
			s-0.9,0.2-1.8,1.3c0,0-0.2,0.2,0.1,0.3c0,0,4.2,1.6,3.3,4.8c-0.6,2.6-6.6,3.7-9.1,1.8c-1.5-1.1-1.9-3.9,1-5.3c0,0,1.6-0.7,1.7-0.6
			c0.2,0,0.3,0.2,0.3,0.2s0.1,0.1-0.3,0.3c0,0-3.6,1.4-3.1,3.8c0,0,0.7,2.9,6,1.5c0.6-0.2,2.6-0.7,2.7-2.5c0-1.4-0.6-1.9-2.7-3
			c-1.5-0.7-1.3-1.4-0.4-2.2C12.3,6,13.5,5.1,14.1,5.2z"/>
		<path fill-rule="evenodd" clip-rule="evenodd" fill="#FFFFFF" d="M16.3,9.8c0,0,1.4-0.3,0.8,0.4c0,0,0,0.1,0,0.2
			c0.1,0.1-0.4,0.4-0.8,0.4c-0.4-0.1-3.1-0.1-4.2,0.9c0,0-0.8-0.1-0.7-0.5C11.5,11.1,14.3,9.9,16.3,9.8"/>
		<path fill-rule="evenodd" clip-rule="evenodd" fill="#FFFFFF" d="M5.5,10.4c0,0-1.5,0-0.8,0.5c0,0,0.1,0.1,0,0.2
			c0,0.1,0.5,0.3,0.9,0.2c0.4-0.1,3.1-0.6,4.3,0.2c0,0,0.8-0.2,0.6-0.6C10.5,11,7.6,10.2,5.5,10.4"/>
	</g>
	<g>
		<path fill-rule="evenodd" clip-rule="evenodd" fill="#FFFFFF" d="M31.2,4.7c0,0,0.3,0,0.4,0.2c0.1,0.2-0.1,0.3-0.1,0.3
			s-0.9,0-2,0.9c0,0-0.2,0.1,0,0.3c0,0,3.8,2.4,2.3,5.3c-1.1,2.4-7.2,2.4-9.3,0c-1.3-1.3-1.1-4.2,2-5c0,0,1.7-0.4,1.8-0.3
			c0.2,0.1,0.2,0.3,0.2,0.3s0.1,0.1-0.3,0.2c0,0-3.8,0.7-3.7,3.1c0,0,0.1,2.9,5.6,2.7c0.6-0.1,2.7-0.2,3.1-2c0.2-1.4-0.2-2-2.1-3.4
			c-1.3-1-1.1-1.6,0.1-2.2C29.3,5.2,30.6,4.5,31.2,4.7z"/>
		<path fill-rule="evenodd" clip-rule="evenodd" fill="#FFFFFF" d="M32.6,9.9c0,0,1.4,0.2,0.7,0.6c0,0-0.1,0.1-0.1,0.2
			c0,0.1-0.5,0.3-0.9,0.1c-0.3-0.2-3-1-4.2-0.4c0,0-0.8-0.3-0.5-0.7C27.6,9.7,30.6,9.3,32.6,9.9"/>
		<path fill-rule="evenodd" clip-rule="evenodd" fill="#FFFFFF" d="M21.7,8.4c0,0-1.5-0.2-0.8,0.4c0,0,0.1,0.1,0,0.2
			c-0.1,0.1,0.5,0.4,0.8,0.3c0.4-0.1,3.1-0.3,4.2,0.6c0,0,0.8-0.1,0.7-0.5C26.6,9.5,23.8,8.4,21.7,8.4"/>
	</g>
	<path fill="#FFFFFF" d="M25.8,13.3c-1.2,2-2.4,4.1-3.6,6.1c-0.1,0.2-0.1,0.5,0.2,0.6c0.5,0.3,1.1,0.2,1.7,0.2c0.8,0,1.7,0,2.5-0.1
		c0.8,0,1.7-0.1,2.5-0.1c0.4,0,1.1,0.1,1.4-0.2c0.6-0.5-0.1-1.5-0.5-2c-1-1.5-2.1-2.9-3.2-4.4c-0.3-0.5-1.1,0-0.8,0.4
		c0.7,1,1.4,1.9,2.1,2.9c0.3,0.5,1.7,1.8,1.3,2.3c-0.1,0.2-1.6,0.1-1.8,0.1c-0.5,0-0.9,0-1.4,0.1c-0.6,0-1.2,0-1.8,0.1
		c-0.5,0-1.2,0.2-1.7-0.1c0.1,0.2,0.1,0.4,0.2,0.6c1.1-2.1,2.3-4.1,3.6-6.1C26.9,13.3,26.1,12.8,25.8,13.3L25.8,13.3z"/>
	<path fill="#FFFFFF" d="M24.5,16.1c-0.7-0.4-1.5-0.8-2.2-1.3c-0.5-0.3-0.9,0.5-0.4,0.8c0.7,0.4,1.4,0.9,2.2,1.3
		C24.5,17.2,25,16.4,24.5,16.1L24.5,16.1z"/>
	<path fill="#FFFFFF" d="M28.9,16.5c0.6-0.4,1.2-0.7,1.8-1.1c0.5-0.3,0-1.1-0.4-0.8c-0.6,0.4-1.2,0.8-1.8,1.1
		C27.9,16,28.4,16.8,28.9,16.5L28.9,16.5z"/>
	<path fill="#FFFFFF" d="M24.2,20.1c-0.2,0.7-0.5,1.3-0.7,2c-0.2,0.5,0.7,0.8,0.8,0.2c0.2-0.7,0.5-1.3,0.7-2
		C25.2,19.8,24.4,19.6,24.2,20.1L24.2,20.1z"/>
	<path fill="#FFFFFF" d="M28.1,20.1c0.3,0.7,0.6,1.4,0.9,2c0.2,0.5,1,0.1,0.8-0.4c-0.3-0.6-0.6-1.2-0.8-1.8
		C28.7,19.3,27.9,19.5,28.1,20.1L28.1,20.1z"/>
	<path fill="#FFFFFF" d="M10.4,14.9c-0.9,2-2.5,3.7-3,5.9c-0.1,0.3,0.1,0.6,0.4,0.6c1.7-0.1,3.4-0.6,5.1-0.8
		c0.8-0.1,1.7-0.1,2.5-0.2c0.3,0,0.7,0,0.9-0.3c0.5-0.8-0.9-1.7-1.4-2.1c-1.2-1.2-2.5-2.2-3.7-3.4c-0.4-0.4-1,0.2-0.6,0.6
		c0.8,0.8,1.6,1.6,2.4,2.3c0.4,0.4,0.8,0.7,1.2,1.1c0.2,0.2,0.4,0.4,0.6,0.6c0.3,0.4,0.4,0.2,0,0.4c-0.4,0.2-1.3,0.1-1.8,0.2
		c-0.5,0.1-1,0.1-1.5,0.2c-1.3,0.2-2.5,0.5-3.8,0.6C8,20.7,8.1,20.8,8.2,21c0.5-2.1,2.1-3.7,2.9-5.7C11.4,14.8,10.6,14.4,10.4,14.9
		L10.4,14.9z"/>
	<path fill="#FFFFFF" d="M9.4,16.6c-0.8,0-1.5-0.1-2.3,0c-0.6,0-0.6,0.9,0,0.9c0.8,0,1.5,0,2.3,0C10,17.5,10,16.6,9.4,16.6L9.4,16.6
		z"/>
	<path fill="#FFFFFF" d="M13.6,16.9c0.2-0.3,0.6-0.5,0.9-0.7c0.4-0.2,0.8-0.5,1.2-0.7c0.5-0.3,0-1-0.4-0.8c-0.8,0.5-1.9,0.9-2.4,1.7
		C12.5,16.9,13.3,17.3,13.6,16.9L13.6,16.9z"/>
	<path fill="#FFFFFF" d="M9.7,21.1c0,0.6-0.1,1.2-0.1,1.7c0,0.6,0.8,0.6,0.9,0c0-0.6,0.1-1.2,0.1-1.7C10.6,20.5,9.7,20.5,9.7,21.1
		L9.7,21.1z"/>
	<path fill="#FFFFFF" d="M13.9,20.5c0.2,0.7,0.4,1.3,0.5,2c0.1,0.6,0.9,0.3,0.8-0.2c-0.1-0.7-0.3-1.4-0.5-2
		C14.6,19.7,13.7,19.9,13.9,20.5L13.9,20.5z"/>
	<path fill="#FFFFFF" d="M45.2,5.3c-0.1-0.1-0.2-0.2-0.4-0.2l-5.4-0.4v1.2l4.7,0.4l-2,25.4L4.5,28.6l0.1-1.3H3.4l-0.1,1.8
		c0,0.2,0,0.3,0.1,0.4c0.1,0.1,0.2,0.2,0.4,0.2l38.8,3c0,0,0,0,0,0c0.3,0,0.6-0.2,0.6-0.5l2.1-26.5C45.3,5.5,45.3,5.4,45.2,5.3z"/>
	<path fill="#FFFFFF" d="M49.8,8.5c-0.1-0.1-0.2-0.2-0.4-0.2l-4.2-0.3l-0.1,1.2l3.6,0.3l-2,25.4L9.1,31.8l0.1-1.7L8,30.1l-0.2,2.3
		c0,0.2,0,0.3,0.1,0.4c0.1,0.1,0.2,0.2,0.4,0.2l38.8,3c0,0,0,0,0,0c0.3,0,0.6-0.2,0.6-0.5l2.1-26.5C49.9,8.7,49.9,8.6,49.8,8.5z"/>
	<path fill="#FFFFFF" d="M39.5,27.8h-39c-0.3,0-0.6-0.3-0.6-0.6V0.6C0,0.3,0.3,0,0.6,0h39c0.3,0,0.6,0.3,0.6,0.6v26.6
		C40.1,27.5,39.9,27.8,39.5,27.8z M1.2,26.6H39V1.2H1.2V26.6z"/>
</g>
</svg>
