<?xml version="1.0" encoding="utf-8"?>
<!-- Generator: Adobe Illustrator 18.1.1, SVG Export Plug-In . SVG Version: 6.00 Build 0)  -->
<svg version="1.1" id="Layer_1" xmlns="http://www.w3.org/2000/svg" xmlns:xlink="http://www.w3.org/1999/xlink" x="0px" y="0px"
	 viewBox="0 0 26 22" enable-background="new 0 0 26 22" xml:space="preserve">
<path fill="#FFFFFF" d="M25.9,2.6c-0.9,0.4-2,0.7-3,0.8c0,0,0,0,0-0.1c1.1-0.7,2-1.7,2.4-3c-0.3,0.2-1.9,1.1-3.4,1.4
	c-1-1.1-2.4-1.8-4-1.8c-3.4,0-5.5,2.8-5.5,5.5c0,0.2,0.1,1.1,0.1,1.1C7.9,6.5,3.9,4.3,1.3,1c-1.9,3.4,0.1,6.3,1.4,7.4
	c-0.8,0-1.5-0.2-2.2-0.5c0.1,2.6,2,4.7,4.5,5.3c-1,0.3-2.2,0.1-2.6-0.1c0.7,2.2,2.7,3.8,5.1,3.9c-3.7,2.7-7.6,2.4-7.7,2.4
	c2.3,1.4,5,2.2,8,2.2c10.7-0.1,16.1-9.5,15.5-16.3C24.4,4.7,25.4,3.8,25.9,2.6"/>
</svg>
